<?xml version="1.0" encoding="UTF-8" standalone="no"?>
<svg
   xmlns:dc="http://purl.org/dc/elements/1.1/"
   xmlns:cc="http://creativecommons.org/ns#"
   xmlns:rdf="http://www.w3.org/1999/02/22-rdf-syntax-ns#"
   xmlns:svg="http://www.w3.org/2000/svg"
   xmlns="http://www.w3.org/2000/svg"
   version="1.1"
   id="Layer_1"
   x="0px"
   y="0px"
   viewBox="0 0 365.39001 281.85183"
   xml:space="preserve"
   width="365.39001"
   height="281.85184"><metadata
   id="metadata85"><rdf:RDF><cc:Work
       rdf:about=""><dc:format>image/svg+xml</dc:format><dc:type
         rdf:resource="http://purl.org/dc/dcmitype/StillImage" /></cc:Work></rdf:RDF></metadata><defs
   id="defs83" />
<style
   type="text/css"
   id="style2">
	.st0{fill:#C23897;}
	.st1{fill:#1E6CD8;}
	.st2{fill:#E12776;}
	.st3{fill:#009A39;}
	.st4{fill:#21418E;}
	.st5{fill:#E40001;}
	.st6{fill:#006A00;}
	.st7{fill:#FFB500;}
	.st8{fill:#002E8F;}
	.st9{fill:#00BFAC;}
	.st10{fill:#012169;}
	.st11{fill:#FF9900;}
	.st12{fill:#BE0B77;}
	.st13{fill:#02AD9E;}
	.st14{fill:#211F1F;}
	.st15{fill:#03ACEE;}
	.st16{fill:#5443C6;}
	.st17{fill:#42AEEE;}
	.st18{fill:#12B6B3;}
	.st19{fill:#F36E22;}
	.st20{fill:#EC1C24;}
	.st21{fill:#404041;}
	.st22{fill:#17A44A;}
	.st23{fill:#E91E2F;}
	.st24{fill:#FAC213;}
	.st25{fill:#009BE1;}
	.st26{fill:#F6B40E;}
	.st27{fill:#DA1A35;}
	.st28{fill:#DD912C;}
	.st29{fill:#8BC53F;}
	.st30{fill:#383E47;}
	.st31{fill:#5120C7;}
	.st32{fill:#00A2BD;}
	.st33{fill:#FF8500;}
	.st34{fill:#003D7A;}
	.st35{fill:#11D38D;}
	.st36{fill:url(#SVGID_1_);}
	.st37{fill:url(#SVGID_2_);}
	.st38{fill:url(#SVGID_3_);}
	.st39{fill:url(#SVGID_4_);}
	.st40{fill-rule:evenodd;clip-rule:evenodd;fill:#DD912C;}
	.st41{fill-rule:evenodd;clip-rule:evenodd;fill:#8BC53F;}
	.st42{fill:#002675;}
	.st43{fill-rule:evenodd;clip-rule:evenodd;fill:#009933;}
	.st44{fill-rule:evenodd;clip-rule:evenodd;fill:#FFA300;}
	.st45{fill:#009933;}
	.st46{fill:#FFA300;}
	.st47{fill:#951DCE;}
	.st48{fill:#FE2C11;}
	.st49{fill:#FFFFFF;}
	.st50{fill-rule:evenodd;clip-rule:evenodd;fill:#0F6B21;}
	.st51{fill-rule:evenodd;clip-rule:evenodd;fill:#148A3B;}
	.st52{fill-rule:evenodd;clip-rule:evenodd;fill:#71C602;}
	.st53{fill:#0F6B21;}
	.st54{fill:#71C602;}
	.st55{fill-rule:evenodd;clip-rule:evenodd;fill:#5443C6;}
	.st56{fill-rule:evenodd;clip-rule:evenodd;fill:#42AEEE;}
	.st57{fill:#1551A1;}
	.st58{fill:#ED4026;}
	.st59{fill-rule:evenodd;clip-rule:evenodd;fill:#1551A1;}
	.st60{fill-rule:evenodd;clip-rule:evenodd;fill:#ED4026;}
	.st61{fill-rule:evenodd;clip-rule:evenodd;fill:#009A39;}
	.st62{fill-rule:evenodd;clip-rule:evenodd;fill:#E12776;}
	.st63{fill:#078930;}
	.st64{fill:#D87B00;}
	.st65{fill-rule:evenodd;clip-rule:evenodd;fill:#078930;}
	.st66{fill-rule:evenodd;clip-rule:evenodd;fill:#D87B00;}
	.st67{fill:url(#XMLID_23_);}
	.st68{clip-path:url(#SVGID_6_);}
	.st69{fill:#EFEDED;}
	.st70{fill:#F2F2F2;}
	.st71{clip-path:url(#SVGID_8_);}
	.st72{clip-path:url(#SVGID_10_);}
	.st73{clip-path:url(#SVGID_12_);}
	.st74{clip-path:url(#SVGID_14_);}
	.st75{clip-path:url(#SVGID_16_);}
	.st76{clip-path:url(#SVGID_18_);}
	.st77{clip-path:url(#SVGID_20_);}
	.st78{clip-path:url(#SVGID_22_);}
	.st79{clip-path:url(#SVGID_24_);}
	.st80{clip-path:url(#SVGID_26_);}
	.st81{clip-path:url(#SVGID_28_);}
	.st82{clip-path:url(#SVGID_30_);}
	.st83{clip-path:url(#SVGID_32_);}
	.st84{clip-path:url(#SVGID_34_);}
	.st85{clip-path:url(#SVGID_36_);}
	.st86{fill-rule:evenodd;clip-rule:evenodd;fill:#FFFFFF;}
	.st87{fill-rule:evenodd;clip-rule:evenodd;fill:#FAC213;}
	.st88{fill-rule:evenodd;clip-rule:evenodd;fill:#17A44A;}
	.st89{fill-rule:evenodd;clip-rule:evenodd;fill:#F19940;}
	.st90{fill-rule:evenodd;clip-rule:evenodd;fill:#F28E7F;}
	.st91{fill-rule:evenodd;clip-rule:evenodd;fill:#B15B27;}
	.st92{fill-rule:evenodd;clip-rule:evenodd;fill:#E91E2F;}
	.st93{fill-rule:evenodd;clip-rule:evenodd;fill:#BC6228;}
	.st94{fill-rule:evenodd;clip-rule:evenodd;fill:#180201;}
	.st95{fill-rule:evenodd;clip-rule:evenodd;fill:#6E3B18;}
	.st96{fill-rule:evenodd;clip-rule:evenodd;fill:#A15925;}
	.st97{fill-rule:evenodd;clip-rule:evenodd;fill:#0F6D37;}
	.st98{fill-rule:evenodd;clip-rule:evenodd;fill:#E89EC5;}
	.st99{fill:#85340A;}
	.st100{fill:#843511;}
	.st101{fill:#F4000D;}
	.st102{fill:#582E00;}
	.st103{fill:#821DD5;}
	.st104{fill:#015B6F;}
</style>
<g
   id="g78"
   transform="translate(-17.46,-59.238161)">
	<g
   id="g14">
		<path
   class="st53"
   d="m 17.46,287.4 c 0,-6.72 2.37,-12.46 7.11,-17.2 4.78,-4.74 10.51,-7.11 17.19,-7.11 h 64.15 v 19.73 H 52.79 c -3.93,0 -6.67,1.53 -8.21,4.57 -1.21,3.05 -1.82,6.72 -1.82,11.02 v 7.38 c 0,4.26 0.61,7.92 1.82,10.97 1.54,3.05 4.28,4.57 8.21,4.57 h 53.13 v 19.73 H 41.77 c -6.69,0 -12.42,-2.37 -17.19,-7.11 -4.74,-4.74 -7.11,-10.45 -7.11,-17.14 V 287.4 Z"
   id="path4" />
		<path
   class="st53"
   d="m 181.48,287.35 c 5.11,0 9.48,1.82 13.12,5.46 3.64,3.64 5.46,8.01 5.46,13.12 v 35.16 h -25.3 v -28.55 c 0,-2.72 -0.96,-5.03 -2.87,-6.94 -1.91,-1.91 -4.23,-2.87 -6.94,-2.87 h -6.01 c -3.71,0 -6.87,1.3 -9.48,3.91 -2.61,2.61 -3.91,5.75 -3.91,9.42 v 25.02 h -25.3 V 263.1 h 25.3 v 28.77 c 3.97,-3.01 8.43,-4.52 13.39,-4.52 z"
   id="path6" />
		<path
   class="st53"
   d="m 214.93,263.04 h 25.35 v 17.64 h -25.35 z m 0,24.31 h 25.3 v 53.73 h -25.3 z"
   id="path8" />
		<path
   class="st53"
   d="m 281.56,314.24 c 0,2.72 0.96,5.03 2.87,6.94 1.95,1.95 4.28,2.92 7,2.92 h 3.64 v 16.97 H 274.9 c -5.14,0 -9.53,-1.82 -13.17,-5.46 -3.64,-3.6 -5.46,-7.97 -5.46,-13.12 V 263.1 h 25.3 v 51.14 z"
   id="path10" />
		<path
   class="st53"
   d="m 360.7,287.35 c 6.1,0 11.32,2.17 15.65,6.5 4.33,4.3 6.5,9.66 6.5,16.09 v 9.48 H 328.3 v 1.43 c 0,0.88 0.24,1.73 0.72,2.54 0.84,1.58 2.61,2.37 5.29,2.37 h 48.5 v 15.32 h -61.17 c -5.14,0 -9.53,-1.82 -13.17,-5.46 -3.6,-3.6 -5.4,-7.97 -5.4,-13.12 v -16.59 c 0,-5.11 1.8,-9.48 5.4,-13.12 3.64,-3.64 8.03,-5.46 13.17,-5.46 h 39.06 z m -2.2,21.77 -0.55,-2.37 c -0.37,-1.14 -0.95,-2.09 -1.74,-2.87 -0.79,-0.77 -1.74,-1.16 -2.84,-1.16 h -21.38 c -1.03,0.04 -1.91,0.42 -2.65,1.16 -0.81,0.81 -1.21,1.76 -1.21,2.87 v 2.37 z"
   id="path12" />
	</g>
	<g
   id="g54">
		<path
   class="st54"
   d="m 19.22,227.08 h 15.5 v 4.4 h -10.2 c 0,0 0.23,1.43 0.23,2.26 v 1.58 c 0,0.9 -0.23,2.33 -0.23,2.33 h 8.01 v 4.17 h -8.01 c 0,0 0.23,1.5 0.23,2.44 v 1.99 c 0,0.98 -0.23,2.44 -0.23,2.44 h 10.42 v 4.4 H 19.22 Z"
   id="path16" />
		<path
   class="st54"
   d="m 39.76,233.39 h 5.12 v 2.37 h 0.34 c 1.58,-1.5 3.38,-2.75 5.9,-2.75 3.16,0 5,1.77 5,5.6 v 14.48 h -5.49 v -13.16 c 0,-1.88 -0.41,-2.63 -2.14,-2.63 -1.2,0 -2.44,0.6 -3.27,1.17 v 14.63 h -5.45 v -19.71 z"
   id="path18" />
		<path
   class="st54"
   d="m 58.83,233.39 h 5.6 l 2.14,8.61 c 0.75,3.12 1.13,7.97 1.13,7.97 h 0.41 c 0,0 0.38,-4.85 1.13,-7.97 l 2.11,-8.61 h 5.12 l -5.72,19.71 h -6.21 z"
   id="path20" />
		<path
   class="st54"
   d="m 79.78,226.17 h 5.68 v 4.25 h -5.68 z m 0.11,7.22 h 5.45 v 19.71 h -5.45 z"
   id="path22" />
		<path
   class="st54"
   d="m 90.16,233.39 h 5.12 v 2.9 h 0.34 c 1.35,-2.03 3.57,-3.16 5.64,-3.12 v 4.85 c -1.84,-0.08 -4.14,0.38 -5.64,1.28 v 13.8 h -5.45 v -19.71 z"
   id="path24" />
		<path
   class="st54"
   d="m 103.78,244.19 v -1.62 c 0,-6.09 3.42,-9.55 8.69,-9.55 5.75,0 8.65,3.5 8.65,9.37 V 244 c 0,6.09 -3.42,9.59 -8.65,9.59 -5.83,0 -8.69,-3.61 -8.69,-9.4 z m 11.77,0.11 v -1.88 c 0,-4.33 -1.13,-5.68 -3.12,-5.68 -2.14,0 -3.12,1.62 -3.12,5.53 v 1.84 c 0,4.48 1.13,5.72 3.16,5.72 2.1,0 3.08,-1.35 3.08,-5.53 z"
   id="path26" />
		<path
   class="st54"
   d="m 125.14,233.39 h 5.12 v 2.37 h 0.34 c 1.58,-1.5 3.38,-2.75 5.9,-2.75 3.16,0 5,1.77 5,5.6 v 14.48 h -5.49 v -13.16 c 0,-1.88 -0.41,-2.63 -2.14,-2.63 -1.2,0 -2.44,0.6 -3.27,1.17 v 14.63 h -5.45 v -19.71 z"
   id="path28" />
		<path
   class="st54"
   d="m 146.09,233.39 h 5.12 v 2.29 h 0.34 c 1.73,-1.62 3.5,-2.67 5.79,-2.67 2.14,0 3.54,0.79 4.29,2.9 h 0.41 c 1.69,-1.73 3.8,-2.9 6.17,-2.9 3.12,0 5.04,1.73 5.04,5.75 v 14.33 h -5.45 v -13.01 c 0,-2.26 -0.6,-2.82 -2.29,-2.82 -1.05,0 -2.29,0.64 -3.12,1.24 0,0.08 0.04,0.34 0.04,0.9 v 13.69 h -5.45 v -13.01 c 0,-2.26 -0.71,-2.82 -2.33,-2.82 -1.13,0 -2.18,0.53 -3.08,1.2 v 14.63 h -5.45 v -19.7 z"
   id="path30" />
		<path
   class="st54"
   d="m 177.05,243.89 v -1.28 c 0,-5.72 3.2,-9.59 8.42,-9.59 5.53,0 7.45,3.61 7.45,9.1 v 2.37 H 182.2 c 0.19,3.95 1.73,5.15 4.85,5.15 2.14,0 3.95,-0.49 5.45,-1.17 v 3.38 c -1.24,0.87 -3.16,1.69 -6.47,1.69 -5.45,0.01 -8.98,-3.3 -8.98,-9.65 z m 5.15,-1.81 c 0.79,-0.19 1.99,-0.45 3.42,-0.45 h 2.44 c 0,-3.31 -0.64,-5.08 -2.6,-5.08 -1.91,0 -3.22,1.43 -3.26,5.53 z"
   id="path32" />
		<path
   class="st54"
   d="m 197.06,233.39 h 5.12 v 2.37 h 0.34 c 1.58,-1.5 3.38,-2.75 5.9,-2.75 3.16,0 5,1.77 5,5.6 v 14.48 h -5.49 v -13.16 c 0,-1.88 -0.41,-2.63 -2.14,-2.63 -1.2,0 -2.44,0.6 -3.27,1.17 v 14.63 h -5.45 v -19.71 z"
   id="path34" />
		<path
   class="st54"
   d="m 219.14,247.91 v -6.73 c 0,-1.05 0.19,-2.75 0.19,-2.75 h -2.71 v -3.84 h 2.71 c 0,0 -0.19,-1.73 -0.19,-2.78 v -3.27 h 5.42 v 3.27 c 0,1.05 -0.23,2.78 -0.23,2.78 h 4.21 v 3.84 h -4.21 c 0,0 0.23,1.69 0.23,2.75 v 6.02 c 0,1.65 0.53,2.18 2.22,2.18 0.68,0 1.43,-0.15 1.96,-0.3 v 3.46 c -0.79,0.38 -2.26,0.9 -3.99,0.9 -3.73,0 -5.61,-1.5 -5.61,-5.53 z"
   id="path36" />
		<path
   class="st54"
   d="m 231.59,247.84 c 0,-3.84 2.44,-5.49 7.26,-5.83 l 2.67,-0.19 v -1.73 c 0,-2.41 -1.35,-3.05 -3.76,-3.05 -1.88,0 -3.42,0.34 -4.63,0.68 v -3.5 c 1.73,-0.64 3.84,-1.2 6.51,-1.2 4.78,0 7.26,1.81 7.26,6.51 v 13.58 h -4.06 l -0.68,-2.18 h -0.34 c -0.87,1.39 -2.52,2.63 -4.81,2.63 -3.28,-0.01 -5.42,-1.96 -5.42,-5.72 z m 10.04,1.24 v -4.78 l -2.11,0.11 c -1.81,0.11 -2.71,1.17 -2.71,3.08 0,1.99 0.68,2.82 2.26,2.82 1.13,0.01 2.07,-0.63 2.56,-1.23 z"
   id="path38" />
		<path
   class="st54"
   d="m 251.6,249.04 v -22.98 h 5.42 v 22.23 c 0,1.09 0.26,1.54 1.24,1.54 0.23,0 0.71,-0.08 0.94,-0.11 v 3.2 c -0.83,0.26 -1.77,0.41 -3.01,0.41 -2.86,0 -4.59,-1.02 -4.59,-4.29 z"
   id="path40" />
		<path
   class="st54"
   d="m 279.96,227.08 h 7.82 c 7.79,0 11.96,3.54 11.96,12.07 v 1.02 c 0,9.1 -4.25,12.94 -11.77,12.94 h -8.01 z m 8.01,21.73 c 3.72,0 5.79,-1.69 5.79,-8.27 v -1.09 c 0,-7 -2.33,-8.05 -6.36,-8.05 h -2.11 c 0,0 0.23,2.18 0.23,3.65 v 10.12 c 0,1.43 -0.23,3.65 -0.23,3.65 h 2.68 z"
   id="path42" />
		<path
   class="st54"
   d="m 303.88,226.17 h 5.68 v 4.25 h -5.68 z m 0.11,7.22 h 5.45 v 19.71 h -5.45 z"
   id="path44" />
		<path
   class="st54"
   d="m 314.45,258.18 v -3.35 c 1.39,0.41 3.61,0.87 5.75,0.87 3.38,0 4.85,-1.09 4.85,-3.2 v -0.34 c 0,-1.5 0.26,-2.41 0.26,-2.41 h -0.34 c -1.2,0.94 -2.48,1.73 -4.59,1.73 -3.87,0 -6.92,-2.37 -6.92,-8.42 v -0.79 c 0,-6.77 3.2,-9.21 7.37,-9.21 2.26,0 3.54,0.87 4.74,1.96 h 0.34 l 0.45,-1.62 h 3.99 v 18.81 c 0,5 -2.97,7.41 -8.91,7.41 -3.12,-0.01 -5.07,-0.5 -6.99,-1.44 z m 10.57,-11.28 v -8.99 c -0.68,-0.45 -1.5,-0.75 -2.82,-0.75 -1.96,0 -3.16,1.2 -3.16,4.93 v 0.68 c 0,4.06 1.13,5.15 3.23,5.15 1.28,-0.01 2.15,-0.46 2.75,-1.02 z"
   id="path46" />
		<path
   class="st54"
   d="m 334.27,243.89 v -1.28 c 0,-5.72 3.2,-9.59 8.42,-9.59 5.53,0 7.45,3.61 7.45,9.1 v 2.37 h -10.72 c 0.19,3.95 1.73,5.15 4.85,5.15 2.14,0 3.95,-0.49 5.45,-1.17 v 3.38 c -1.24,0.87 -3.16,1.69 -6.47,1.69 -5.44,0.01 -8.98,-3.3 -8.98,-9.65 z m 5.15,-1.81 c 0.79,-0.19 1.99,-0.45 3.42,-0.45 h 2.44 c 0,-3.31 -0.64,-5.08 -2.6,-5.08 -1.9,0 -3.22,1.43 -3.26,5.53 z"
   id="path48" />
		<path
   class="st54"
   d="m 353.57,252.39 v -3.8 c 1.43,0.64 2.86,1.05 5.04,1.05 2.07,0 3.08,-0.64 3.08,-1.99 0,-1.2 -0.56,-1.69 -2.18,-2.22 l -1.92,-0.6 c -2.6,-0.79 -4.14,-2.44 -4.14,-5.68 0,-3.99 2.44,-6.13 6.96,-6.13 2.11,0 3.84,0.26 5.23,0.94 v 3.76 c -1.05,-0.53 -2.86,-0.83 -4.78,-0.83 -1.81,0 -2.56,0.6 -2.56,1.77 0,1.24 0.79,1.65 1.96,2.03 l 1.96,0.6 c 3.38,1.02 4.55,2.67 4.55,5.94 0,4.17 -2.52,6.36 -7.67,6.36 -1.96,0 -4.14,-0.41 -5.53,-1.2 z"
   id="path50" />
		<path
   class="st54"
   d="m 371.51,247.91 v -6.73 c 0,-1.05 0.19,-2.75 0.19,-2.75 h -2.71 v -3.84 h 2.71 c 0,0 -0.19,-1.73 -0.19,-2.78 v -3.27 h 5.42 v 3.27 c 0,1.05 -0.23,2.78 -0.23,2.78 h 4.21 v 3.84 h -4.21 c 0,0 0.23,1.69 0.23,2.75 v 6.02 c 0,1.65 0.53,2.18 2.22,2.18 0.68,0 1.43,-0.15 1.96,-0.3 v 3.46 c -0.79,0.38 -2.26,0.9 -3.99,0.9 -3.73,0 -5.61,-1.5 -5.61,-5.53 z"
   id="path52" />
	</g>
	<g
   id="g76">
		<path
   class="st50"
   d="m 270.24,125.14 c 0,20.85 -8,39.83 -21.1,54.06 5.59,-17.96 -1.05,-40.95 -18.25,-47.55 21.03,20 10.26,73.32 -40.5,73.32 -21.58,0 -41.16,-8.55 -55.54,-22.49 14.47,20.45 38.28,33.78 65.23,33.78 44.09,0 79.83,-35.75 79.83,-79.83 0,-22.51 -9.32,-42.85 -24.3,-57.36 9.22,13 14.63,28.91 14.63,46.07 z"
   id="path56" />
		<path
   class="st51"
   d="m 171.62,198 c -33.14,-28.86 -21.72,-88.09 -1.95,-100.01 -19.31,7.61 -33.54,30.94 -33.67,51.28 -3.18,-12.71 -3.27,-26.37 0.37,-39.93 5.59,-20.84 18.94,-37.54 36.1,-47.83 -23.48,8.68 -42.67,28.2 -49.52,54.26 -9.69,36.93 8.66,71.95 48.67,82.23 z"
   id="path58" />
		<path
   class="st52"
   d="m 226.14,65.72 c 6.46,-1.51 13.54,-0.3 19.35,3.9 4.99,3.62 8.16,8.82 9.32,14.43 l -5.34,-3.11 -11.86,-6.92 10.28,9.12 4.61,4.1 c -5.7,0.66 -11.63,-0.73 -16.63,-4.37 -5.81,-4.18 -9.15,-10.53 -9.73,-17.15 z m -20.09,40.25 c 6.64,-0.25 13.35,2.27 18.25,7.51 4.22,4.51 6.34,10.24 6.41,15.96 l -4.65,-4.06 -10.33,-9.07 8.34,10.92 3.76,4.92 c -5.72,-0.44 -11.27,-2.95 -15.49,-7.45 -4.91,-5.26 -6.98,-12.11 -6.29,-18.73 z m 54.75,15.73 c 3.09,4.35 4.35,9.96 2.98,15.55 -1.19,4.81 -4.08,8.75 -7.92,11.31 l 0.71,-4.92 1.54,-10.9 -3.67,10.38 -1.65,4.69 c -2.2,-4.03 -2.96,-8.87 -1.79,-13.68 1.37,-5.58 5.06,-9.98 9.8,-12.43 z M 209.86,86.22 c 3.35,-3.04 7.95,-4.65 12.78,-4.06 4.17,0.51 7.77,2.56 10.31,5.52 l -4.21,-0.09 -9.34,-0.21 9.12,2.04 4.1,0.91 c -3.18,2.27 -7.15,3.41 -11.32,2.89 -4.83,-0.59 -8.9,-3.26 -11.44,-7 z m -5.71,56.69 c 3.18,-4.28 8.11,-7.22 13.84,-7.67 4.95,-0.39 9.58,1.15 13.2,3.98 l -4.88,0.87 -10.84,1.95 11.02,0.23 4.95,0.11 c -3.14,3.35 -7.49,5.59 -12.42,5.98 -5.73,0.44 -11.07,-1.71 -14.87,-5.45 z m 32.82,-36.16 c 4.81,2.29 8.63,6.58 10.17,12.12 1.31,4.77 0.69,9.64 -1.4,13.72 l -1.77,-4.61 -3.98,-10.28 1.86,10.86 0.85,4.88 c -3.9,-2.45 -6.92,-6.28 -8.24,-11.08 -1.54,-5.53 -0.46,-11.17 2.51,-15.61 z m -6.16,-9.39 c 3.44,-4.08 8.55,-6.69 14.31,-6.76 4.97,-0.07 9.5,1.76 12.92,4.81 l -4.92,0.57 -10.95,1.22 10.99,0.96 4.93,0.41 c -3.35,3.16 -7.84,5.11 -12.8,5.16 -5.75,0.09 -10.93,-2.39 -14.48,-6.37 z"
   id="path60" />
		<path
   class="st52"
   d="m 189.86,107.53 c -3.04,4.06 -7.74,6.83 -13.19,7.24 -4.69,0.34 -9.11,-1.14 -12.53,-3.83 l 4.65,-0.82 10.31,-1.79 -10.47,-0.27 -4.7,-0.12 c 3,-3.16 7.13,-5.27 11.84,-5.63 5.43,-0.38 10.51,1.66 14.09,5.22 z"
   id="path62" />
		<path
   class="st52"
   d="m 206.03,88.42 c -5.93,-3.64 -13.44,-5.15 -20.75,-3.57 -6.3,1.35 -11.34,4.76 -14.52,9.21 l 6.46,-0.78 14.36,-1.76 -13.56,4.24 -6.11,1.92 c 5.47,2.61 11.91,3.53 18.21,2.18 7.32,-1.57 12.95,-5.89 15.91,-11.44 z"
   id="path64" />
		<path
   class="st52"
   d="m 192.42,61.12 c -4.81,-2.31 -10.54,-2.59 -15.81,-0.3 -4.54,1.97 -7.93,5.5 -9.82,9.69 L 171.51,69 182,65.65 l -9.62,5.36 -4.33,2.41 c 4.35,1.49 9.23,1.44 13.77,-0.53 5.29,-2.29 9,-6.67 10.6,-11.77 z"
   id="path66" />
		<path
   class="st52"
   d="m 177.81,81.23 c -2.7,3.62 -6.9,6.09 -11.75,6.44 -4.19,0.32 -8.13,-1.01 -11.18,-3.41 l 4.14,-0.73 9.21,-1.6 -9.34,-0.25 -4.21,-0.11 c 2.66,-2.82 6.37,-4.7 10.56,-5.02 4.85,-0.34 9.37,1.49 12.57,4.68 z"
   id="path68" />
		<path
   class="st52"
   d="m 154.45,88.6 c 1.93,4.08 2.18,8.95 0.23,13.4 -1.67,3.85 -4.67,6.73 -8.22,8.31 l 1.28,-3.99 2.86,-8.89 -4.54,8.15 -2.06,3.67 c -1.26,-3.69 -1.21,-7.83 0.48,-11.68 1.93,-4.48 5.66,-7.63 9.97,-8.97 z"
   id="path70" />
		<path
   class="st52"
   d="m 220.6,64.17 c -6.57,-2.34 -14.2,-2.24 -21.03,0.83 -5.89,2.63 -10.12,7.01 -12.28,12.03 l 6.16,-2.11 13.67,-4.72 -12.37,6.99 -5.57,3.14 c 5.89,1.42 12.37,0.98 18.26,-1.67 6.83,-3.06 11.42,-8.45 13.16,-14.49 z"
   id="path72" />
		<path
   class="st52"
   d="m 179.42,119.69 c -1.47,4.85 -4.97,9.05 -9.96,11.27 -4.3,1.92 -8.95,2.02 -13.08,0.64 l 4.08,-2.33 9.11,-5.18 -9.94,3.28 -4.47,1.49 c 1.74,-4.01 4.93,-7.4 9.23,-9.32 4.99,-2.21 10.44,-2 15.03,0.15 z"
   id="path74" />
	</g>
</g>
</svg>
